HIERARCHY
ROOT Hips
{
    OFFSET 0.000000 0.000000 0.000000
    CHANNELS 6 Xposition Yposition Zposition Zrotation Xrotation Yrotation
    JOINT Spine
    {
        OFFSET -0.000000 7.236184 0.000000
        CHANNELS 3 Zrotation Xrotation Yrotation
        JOINT Spine1
        {
            OFFSET -0.000000 20.420147 0.000000
            CHANNELS 3 Zrotation Xrotation Yrotation
            JOINT Neck
            {
                OFFSET -0.000000 20.336288 1.848754
                CHANNELS 3 Zrotation Xrotation Yrotation
                JOINT Head
                {
                    OFFSET -0.000000 12.354461 -1.764923
                    CHANNELS 3 Zrotation Xrotation Yrotation
                    End Site
                    {
                        OFFSET -0.000000 22.061537 0.000000
                    }
                }
            }
            JOINT LeftShoulder
            {
                OFFSET 3.573296 18.396038 -0.314103
                CHANNELS 3 Zrotation Xrotation Yrotation
                JOINT LeftArm
                {
                    OFFSET 10.880760 0.000000 0.000000
                    CHANNELS 3 Zrotation Xrotation Yrotation
                    JOINT LeftForeArm
                    {
                        OFFSET 27.185530 0.000000 0.000000
                        CHANNELS 3 Zrotation Xrotation Yrotation
                        JOINT LeftHand
                        {
                            OFFSET 27.825975 0.000000 0.000000
                            CHANNELS 3 Zrotation Xrotation Yrotation
                            End Site
                            {
                                OFFSET 13.236923 0.000000 0.000000
                            }
                        }
                    }
                }
            }
            JOINT RightShoulder
            {
                OFFSET -3.474926 18.396038 -0.314103
                CHANNELS 3 Zrotation Xrotation Yrotation
                JOINT RightArm
                {
                    OFFSET -10.880760 0.000000 0.000000
                    CHANNELS 3 Zrotation Xrotation Yrotation
                    JOINT RightForeArm
                    {
                        OFFSET -27.185530 0.000000 0.000000
                        CHANNELS 3 Zrotation Xrotation Yrotation
                        JOINT RightHand
                        {
                            OFFSET -27.825975 0.000000 0.000000
                            CHANNELS 3 Zrotation Xrotation Yrotation
                            End Site
                            {
                                OFFSET -13.236923 0.000000 0.000000
                            }
                        }
                    }
                }
            }
        }
    }
    JOINT LeftUpLeg
    {
        OFFSET 8.824615 0.000000 0.000000
        CHANNELS 3 Zrotation Xrotation Yrotation
        JOINT LeftLeg
        {
            OFFSET -0.000000 -35.111282 0.000000
            CHANNELS 3 Zrotation Xrotation Yrotation
            JOINT LeftFoot
            {
                OFFSET -0.000000 -42.324711 0.000000
                CHANNELS 3 Zrotation Xrotation Yrotation
                JOINT LeftToeBase
                {
                    OFFSET -0.000000 -5.735999 13.236923
                    CHANNELS 3 Zrotation Xrotation Yrotation
                    End Site
                    {
                        OFFSET -0.000000 0.000000 3.529846
                    }
                }
            }
        }
    }
    JOINT RightUpLeg
    {
        OFFSET -8.824615 0.000000 0.000000
        CHANNELS 3 Zrotation Xrotation Yrotation
        JOINT RightLeg
        {
            OFFSET -0.000000 -35.111282 0.000000
            CHANNELS 3 Zrotation Xrotation Yrotation
            JOINT RightFoot
            {
                OFFSET -0.000000 -42.324711 0.000000
                CHANNELS 3 Zrotation Xrotation Yrotation
                JOINT RightToeBase
                {
                    OFFSET -0.000000 -5.735999 13.236923
                    CHANNELS 3 Zrotation Xrotation Yrotation
                    End Site
                    {
                        OFFSET -0.000000 0.000000 3.529846
                    }
                }
            }
        }
    }
}
MOTION
Frames:    8
Frame Time:    0.008333
-1.742769    80.783966    111.224220    1.943060    -10.690665    -177.002609    -1.584694    -12.138553    0.929808    4.152736    5.742015    0.889960    2.524200    9.094309    -5.564569    9.985178    -7.323985    -3.912764    -1.207073    16.365099    0.922269    -50.776985    41.149422    -33.185635    0.908094    -6.631793    -16.071009    18.193609    -6.196477    1.934860    7.123055    18.956347    -9.619632    48.421360    38.940834    31.258221    -6.475457    -8.179462    23.277765    -18.125132    -6.379308    -3.006440    6.143308    -22.084181    -1.468650    -0.973633    32.980659    7.496295    -5.148292    -17.714630    -10.897519    -0.398931    0.305281    0.441958    -22.187986    -13.351035    -1.785429    3.666915    27.533272    0.378407    12.834061    -0.235323    -9.244346    0.646388    -6.227198    -0.705455    
-2.022573    80.820267    111.222519    1.991278    -10.590950    -176.930618    -1.529344    -12.077445    0.904419    4.199763    5.716167    0.856478    2.527113    9.171199    -5.639573    10.036976    -7.283723    -3.982146    -1.198450    16.374146    0.963893    -50.749981    41.075268    -33.161224    0.864789    -6.841010    -16.021854    18.314295    -6.401254    1.990892    7.123792    18.970848    -9.626221    48.472340    38.927837    31.240088    -6.639068    -8.071959    23.400434    -18.333105    -6.228457    -2.983870    5.973273    -21.928028    -1.575410    -1.011244    32.873940    7.442082    -4.955504    -17.782242    -10.809724    -0.396816    0.364090    0.439569    -22.352324    -13.725390    -2.077394    3.689900    29.942165    0.966051    12.671857    -0.248352    -9.223927    0.633040    -6.564333    -0.691247    
-2.288658    80.854576    111.219429    2.031867    -10.484118    -176.842300    -1.475158    -12.011719    0.874732    4.230777    5.684752    0.819808    2.535792    9.255471    -5.713273    10.081540    -7.237235    -4.052428    -1.185344    16.392958    1.016519    -50.729485    40.988651    -33.137241    0.818097    -7.040767    -15.960920    18.422621    -6.597383    2.045964    7.128704    18.986328    -9.635799    48.524288    38.911148    31.214432    -6.814230    -7.958179    23.538364    -18.567682    -6.067458    -2.958039    5.800507    -21.769106    -1.668481    -1.027610    32.769211    7.343994    -4.776306    -17.841713    -10.722956    -0.398125    0.417677    0.440977    -22.521130    -14.093147    -2.397972    3.691681    32.481129    1.579044    12.500801    -0.255758    -9.201880    0.623631    -6.881690    -0.681307    
-2.544047    80.886307    111.214890    2.064493    -10.370407    -176.738770    -1.422840    -11.943125    0.841230    4.248801    5.649908    0.780306    2.547326    9.346005    -5.786510    10.121026    -7.185133    -4.123823    -1.170940    16.419886    1.079081    -50.715164    40.889309    -33.109787    0.768025    -7.230856    -15.891747    18.520964    -6.784509    2.100144    7.135690    19.001364    -9.649263    48.578846    38.887783    31.180519    -6.999615    -7.845064    23.694744    -18.824986    -5.903367    -2.929234    5.622642    -21.608631    -1.748945    -1.023621    32.669315    7.202282    -4.604958    -17.896250    -10.632987    -0.402101    0.465702    0.445343    -22.698498    -14.451610    -2.734800    3.674513    35.155598    2.212112    12.323105    -0.255374    -9.172998    0.616540    -7.176592    -0.673871    
-2.785152    80.914268    111.209061    2.088562    -10.253100    -176.624283    -1.373977    -11.874398    0.805323    4.256477    5.613789    0.739473    2.559163    9.439198    -5.858026    10.155540    -7.129192    -4.194755    -1.158365    16.452070    1.147999    -50.708252    40.779682    -33.074356    0.716250    -7.406682    -15.819519    18.609362    -6.958104    2.151735    7.142713    19.014378    -9.666553    48.635757    38.855396    31.138474    -7.187181    -7.742570    23.868090    -19.089823    -5.747979    -2.898986    5.442643    -21.452049    -1.817376    -1.001714    32.579418    7.023743    -4.442473    -17.946859    -10.538875    -0.408127    0.507569    0.451983    -22.882568    -14.789475    -3.064834    3.643818    37.899567    2.841132    12.144560    -0.246889    -9.134451    0.611175    -7.437481    -0.668279    
-3.017405    80.938385    111.201813    2.104745    -10.130817    -176.498901    -1.327023    -11.805774    0.767385    4.254201    5.577353    0.697284    2.571531    9.535524    -5.929140    10.186147    -7.069806    -4.266309    -1.147447    16.488508    1.222329    -50.711090    40.657543    -33.025864    0.662260    -7.570568    -15.745221    18.690947    -7.120585    2.199940    7.149893    19.024027    -9.687680    48.695873    38.811657    31.086887    -7.375690    -7.656042    24.062832    -19.354013    -5.606437    -2.869179    5.257337    -21.298946    -1.878086    -0.964891    32.501915    6.809933    -4.285357    -17.996687    -10.436441    -0.416029    0.544742    0.460704    -23.077488    -15.108614    -3.377036    3.607303    40.752705    3.464576    11.962838    -0.230774    -9.084599    0.607274    -7.665803    -0.664254    
-3.237052    80.957809    111.193237    2.113562    -10.006674    -176.367538    -1.281912    -11.739967    0.729004    4.242315    5.542714    0.655369    2.584374    9.631802    -5.998312    10.212840    -7.008605    -4.336854    -1.136682    16.527693    1.298268    -50.726982    40.525623    -32.962151    0.608265    -7.719460    -15.671836    18.764154    -7.269107    2.242005    7.156676    19.029127    -9.711459    48.757652    38.756317    31.026712    -7.556140    -7.591065    24.275097    -19.599333    -5.486282    -2.843420    5.071266    -21.154163    -1.933015    -0.917312    32.441521    6.572006    -4.138078    -18.046179    -10.327499    -0.425241    0.577355    0.470878    -23.278757    -15.399198    -3.649252    3.576432    43.647293    4.055990    11.782834    -0.209242    -9.025496    0.604349    -7.853803    -0.661251    
-3.444943    80.972298    111.183380    2.116324    -9.881567    -176.232895    -1.237302    -11.678167    0.691185    4.220987    5.510732    0.614468    2.599034    9.727596    -6.065306    10.235250    -6.947012    -4.406135    -1.123774    16.568632    1.373185    -50.760017    40.384068    -32.880043    0.555260    -7.853806    -15.599566    18.828793    -7.404373    2.275583    7.163317    19.028870    -9.736595    48.819462    38.689552    30.958515    -7.724203    -7.548829    24.503696    -19.813328    -5.389464    -2.824558    4.885767    -21.019524    -1.985018    -0.862311    32.401127    6.318396    -4.002643    -18.096571    -10.213808    -0.435317    0.606417    0.482010    -23.484940    -15.659945    -3.869433    3.563538    46.573936    4.601766    11.606063    -0.183859    -8.959462    0.601612    -8.003761    -0.658413    
